<svg xmlns="http://www.w3.org/2000/svg" width="40" height="24" viewBox="0 0 40 24">
    <g fill="none" fill-rule="evenodd" transform="translate(-.4)">
        <rect width="38.875" height="23.2" x=".825" y=".4" fill="#FFF" stroke="#E7E7E7" stroke-width=".8" rx="1.8"/>
        <path fill="#C00" d="M22.694 12.194c0 4.311-3.466 7.806-7.743 7.806-4.276 0-7.742-3.495-7.742-7.806s3.466-7.806 7.742-7.806c4.277 0 7.743 3.495 7.743 7.806"/>
        <path fill="#F90" d="M25.346 4.388a7.68 7.68 0 0 0-5.198 2.02 7.93 7.93 0 0 0-.781.827h1.564c.214.262.41.538.59.827h-2.745a7.863 7.863 0 0 0-.446.826h3.637c.125.268.234.544.328.827h-4.293c-.089.269-.164.545-.224.826h4.742a7.925 7.925 0 0 1-.225 4.133h-4.293c.095.283.204.559.328.827h3.637a7.84 7.84 0 0 1-.446.826h-2.745c.18.288.377.564.59.826h1.565c-.24.295-.502.571-.782.827A7.68 7.68 0 0 0 25.346 20c4.276 0 7.743-3.495 7.743-7.806 0-4.31-3.467-7.806-7.743-7.806"/>
        <path fill="#006" d="M13.143 13.049a1.434 1.434 0 0 0-.187-.014c-.477 0-.718.165-.718.49 0 .201.118.329.301.329.343 0 .59-.329.604-.805zm.612 1.435h-.697l.016-.334c-.212.263-.496.39-.88.39-.456 0-.769-.36-.769-.88 0-.784.544-1.242 1.476-1.242.096 0 .218.01.343.025a.801.801 0 0 0 .033-.209c0-.213-.147-.293-.54-.293-.41-.004-.75.1-.89.145.01-.053.117-.724.117-.724.42-.124.695-.17 1.006-.17.722 0 1.105.326 1.104.944a4.16 4.16 0 0 1-.068.638c-.073.466-.23 1.466-.251 1.71zM11.074 14.484h-.841l.482-3.044-1.076 3.044h-.572l-.071-3.027-.506 3.027h-.787l.657-3.96H9.57l.073 2.216.737-2.216h1.345l-.65 3.96M26.385 13.049a1.428 1.428 0 0 0-.187-.014c-.477 0-.718.165-.718.49 0 .201.117.329.301.329.343 0 .59-.329.604-.805zm.612 1.435H26.3l.016-.334c-.212.263-.496.39-.88.39-.457 0-.769-.36-.769-.88 0-.784.544-1.242 1.476-1.242.095 0 .217.01.342.025a.796.796 0 0 0 .033-.209c0-.213-.146-.293-.539-.293-.411-.004-.75.1-.89.145.01-.053.117-.724.117-.724.419-.124.695-.17 1.006-.17.722 0 1.104.326 1.103.944a4.13 4.13 0 0 1-.068.638c-.072.466-.23 1.466-.25 1.71zM17.49 14.435c-.23.073-.409.104-.604.104-.43 0-.664-.249-.664-.707-.006-.143.062-.517.115-.858l.365-2.198h.835l-.097.488h.505l-.114.773h-.507c-.097.613-.235 1.376-.237 1.477 0 .166.088.238.288.238.096 0 .17-.01.227-.03l-.112.713M20.052 14.409a2.82 2.82 0 0 1-.857.13c-.936-.001-1.423-.493-1.423-1.436 0-1.1.62-1.911 1.462-1.911.689 0 1.13.453 1.13 1.165 0 .236-.031.467-.104.792h-1.664c-.056.467.24.661.727.661.298 0 .568-.062.868-.202l-.139.8zm-.47-1.91c.005-.067.089-.574-.389-.574-.265 0-.456.204-.533.575h.922zM14.259 12.282c0 .407.196.687.64.899.34.161.393.209.393.355 0 .2-.15.291-.483.291-.25 0-.484-.04-.753-.127l-.115.744c.19.042.361.08.874.095.887 0 1.297-.34 1.297-1.076 0-.442-.171-.702-.593-.898-.352-.162-.393-.199-.393-.35 0-.173.14-.262.412-.262.165 0 .39.018.604.048l.12-.747a5.63 5.63 0 0 0-.74-.062c-.94 0-1.266.495-1.263 1.09M24.14 11.277c.234 0 .452.06.751.213l.138-.859c-.124-.049-.557-.335-.924-.335-.562 0-1.038.282-1.372.746-.488-.163-.69.166-.935.494l-.218.051c.016-.108.031-.215.026-.323h-.772c-.105.996-.292 2.006-.438 3.003l-.038.217h.84c.14-.92.218-1.508.264-1.907l.317-.177c.048-.178.195-.238.492-.23-.038.21-.06.43-.06.66 0 1.053.565 1.71 1.47 1.71.233 0 .433-.032.743-.117l.147-.902c-.279.138-.507.203-.714.203-.488 0-.784-.364-.784-.965 0-.872.44-1.482 1.067-1.482M31.257 10.524l-.187 1.144c-.23-.305-.477-.526-.803-.526-.424 0-.81.325-1.062.802a6.874 6.874 0 0 1-.716-.199v.003c.028-.267.04-.429.037-.484h-.773c-.104.996-.292 2.006-.438 3.003l-.038.217h.84c.114-.744.201-1.361.265-1.85.288-.263.432-.49.722-.476a2.78 2.78 0 0 0-.204 1.045c0 .805.403 1.336 1.015 1.336.308 0 .544-.107.775-.355l-.04.3h.795l.64-3.96h-.828zm-1.052 3.216c-.286 0-.43-.214-.43-.635 0-.633.27-1.082.651-1.082.29 0 .446.222.446.63 0 .64-.275 1.087-.667 1.087z"/>
        <path fill="#FFF" d="M11.315 14.249h-.84l.482-3.044L9.88 14.25h-.573l-.07-3.026-.506 3.026h-.787l.657-3.96h1.209l.034 2.451.815-2.45h1.306l-.65 3.959M13.385 12.814a1.386 1.386 0 0 0-.187-.013c-.477 0-.718.165-.718.49 0 .2.118.328.302.328.342 0 .589-.328.603-.805zm.612 1.435H13.3l.016-.334c-.212.264-.496.39-.88.39-.456 0-.769-.36-.769-.88 0-.785.544-1.241 1.476-1.241.095 0 .218.008.343.025a.805.805 0 0 0 .033-.21c0-.213-.147-.292-.54-.292a2.772 2.772 0 0 0-.89.144c.01-.053.117-.724.117-.724.42-.124.695-.17 1.006-.17.722 0 1.104.327 1.104.944.001.165-.026.37-.068.638-.073.466-.23 1.467-.251 1.71zM25.27 10.396l-.137.86c-.3-.153-.518-.214-.75-.214-.628 0-1.069.611-1.069 1.483 0 .601.296.964.785.964.207 0 .436-.064.714-.203l-.148.902c-.31.085-.51.116-.743.116-.905 0-1.468-.656-1.468-1.709 0-1.415.779-2.405 1.893-2.405.367 0 .8.157.924.206M26.627 12.814a1.376 1.376 0 0 0-.187-.013c-.477 0-.718.165-.718.49 0 .2.118.328.301.328.343 0 .59-.328.604-.805zm.611 1.435h-.696l.016-.334c-.213.264-.496.39-.88.39-.457 0-.769-.36-.769-.88 0-.785.543-1.241 1.476-1.241.095 0 .217.008.342.025a.801.801 0 0 0 .033-.21c0-.213-.146-.292-.539-.292a2.773 2.773 0 0 0-.89.144c.01-.053.117-.724.117-.724.419-.124.695-.17 1.006-.17.722 0 1.104.327 1.103.944.002.165-.025.37-.068.638-.072.466-.229 1.467-.25 1.71zM17.732 14.2c-.23.073-.41.104-.604.104-.43 0-.664-.249-.664-.707-.006-.142.062-.516.116-.858.048-.301.364-2.197.364-2.197h.836l-.098.487h.429l-.115.773h-.43c-.097.613-.235 1.376-.237 1.477 0 .166.088.238.288.238.096 0 .17-.01.227-.03l-.112.713M20.294 14.174a2.84 2.84 0 0 1-.857.13c-.936 0-1.423-.493-1.423-1.436 0-1.1.62-1.911 1.462-1.911.69 0 1.129.453 1.129 1.165 0 .236-.03.467-.103.792h-1.664c-.056.467.24.662.726.662.3 0 .569-.062.87-.203l-.14.801zm-.47-1.91c.005-.067.09-.574-.388-.574-.266 0-.457.205-.534.575h.923zM14.5 12.047c0 .407.197.688.641.899.34.161.393.209.393.355 0 .201-.15.292-.483.292-.25 0-.484-.04-.753-.127l-.115.743c.19.042.361.08.874.095.887 0 1.297-.34 1.297-1.076 0-.442-.172-.702-.593-.897-.352-.163-.393-.2-.393-.35 0-.174.14-.264.412-.264.165 0 .39.019.604.05l.12-.747a5.676 5.676 0 0 0-.74-.063c-.94 0-1.266.495-1.263 1.09M31.687 14.249h-.795l.04-.3c-.231.248-.467.355-.775.355-.611 0-1.015-.53-1.015-1.336 0-1.07.626-1.974 1.367-1.974.326 0 .573.135.803.44l.187-1.145h.828l-.64 3.96zm-1.24-.744c.392 0 .667-.448.667-1.085 0-.41-.157-.632-.446-.632-.38 0-.652.449-.652 1.082 0 .422.145.635.431.635zM27.996 11.029c-.106.996-.292 2.006-.439 3.003l-.038.217h.84c.301-1.97.374-2.354.846-2.306.075-.403.214-.756.319-.934-.352-.074-.55.127-.807.508.02-.165.058-.325.05-.488h-.771M21.076 11.029c-.105.996-.292 2.006-.438 3.003l-.039.217h.841c.301-1.97.373-2.354.844-2.306.076-.403.216-.756.32-.934-.352-.074-.549.127-.806.508.02-.165.058-.325.05-.488h-.772"/>
    </g>
</svg>
