<svg xmlns="http://www.w3.org/2000/svg" width="41" height="24" viewBox="0 0 41 24">
    <g fill="none" fill-rule="evenodd" transform="translate(.4)">
        <rect width="38.875" height="23.2" x=".4" y=".4" fill="#0072CE" stroke="#E7E7E7" stroke-width=".8" rx="1.8"/>
        <path fill="#FFF" d="M34.288 15.999c-.186.275-.55.414-1.043.414h-1.486v-.694h1.48c.146 0 .25-.02.311-.08a.285.285 0 0 0 .09-.21.266.266 0 0 0-.093-.215c-.056-.05-.137-.072-.271-.072-.722-.024-1.623.023-1.623-1.001 0-.47.296-.963 1.103-.963h1.532v-.644h-1.423c-.43 0-.742.104-.963.264v-.264h-2.105c-.337 0-.732.084-.919.264v-.264h-3.76v.264c-.299-.217-.803-.264-1.036-.264h-2.48v.264c-.237-.23-.763-.264-1.084-.264h-2.776l-.635.691-.595-.69h-4.146v4.513h4.068l.655-.702.616.702 2.508.002V15.99h.246c.333.005.725-.009 1.071-.16v1.22H23.6v-1.177h.1c.127 0 .14.005.14.133v1.043h6.282c.399 0 .816-.103 1.047-.289v.289h1.993c.414 0 .82-.058 1.127-.208v-.841zm0-2.133h-1.401c-.14 0-.233.006-.312.059-.08.052-.112.13-.112.232 0 .122.069.205.168.241a.872.872 0 0 0 .297.037l.417.011c.42.01.7.083.872.26.031.025.05.053.071.08v-.92zm-3.067.84c.15.156.23.353.23.686 0 .696-.433 1.02-1.209 1.02h-1.498v-.693h1.492c.146 0 .25-.02.314-.08a.288.288 0 0 0 .091-.21.278.278 0 0 0-.094-.215c-.058-.05-.14-.072-.273-.072-.72-.024-1.62.023-1.62-1.001 0-.47.293-.963 1.1-.963h1.541v.688h-1.41c-.14 0-.232.006-.309.059-.084.052-.115.13-.115.233 0 .122.071.205.168.24a.88.88 0 0 0 .3.037l.413.011c.418.01.704.083.879.26zm-6.94-.2c-.103.062-.23.067-.38.067h-.935v-.726h.947c.137 0 .274.003.368.058.1.053.159.153.159.291a.35.35 0 0 1-.16.31zm.464.403a.836.836 0 0 1 .377.272c.108.158.124.305.127.59v.642h-.772v-.405c0-.195.019-.483-.124-.633-.113-.116-.284-.144-.565-.144h-.821v1.182h-.773v-3.235h1.775c.39 0 .673.017.926.152.242.148.395.35.395.719 0 .516-.343.78-.545.86zm.972-1.731h2.567v.669h-1.801v.588h1.757v.66h-1.757v.644l1.8.003v.67h-2.566v-3.234zm-5.19 1.493h-.993v-.824h1.002c.278 0 .47.114.47.397 0 .28-.183.427-.479.427zm-1.76 1.448l-1.18-1.318 1.18-1.276v2.594zm-3.049-.38h-1.89v-.644h1.688v-.66h-1.689v-.588h1.928l.842.943-.879.949zm6.115-1.495c0 .898-.667 1.084-1.34 1.084h-.96v1.085H18.04l-.947-1.071-.985 1.07h-3.046v-3.234h3.093l.947 1.06.978-1.06h2.457c.61 0 1.297.17 1.297 1.066zM9.392 9.45l-.527-1.29-.523 1.29h1.05zm11.596-.514c-.105.065-.23.067-.38.067h-.934v-.718h.947c.134 0 .273.006.364.058.1.047.162.147.162.286 0 .141-.059.255-.159.307zm6.666.514l-.533-1.29-.529 1.29h1.062zm-12.425 1.395h-.788l-.003-2.533-1.116 2.533h-.675L11.53 8.31v2.535H9.965l-.296-.721H8.068l-.299.721h-.835l1.377-3.234h1.143l1.308 3.062V7.611h1.255l1.007 2.194.924-2.194h1.28v3.234h.001zm3.142 0h-2.569V7.611h2.57v.674h-1.8v.582h1.756v.663h-1.757v.646h1.8v.67zm3.623-2.363a.91.91 0 0 1-.542.862.892.892 0 0 1 .38.273c.11.16.128.304.128.593v.635h-.776l-.003-.408c0-.194.019-.474-.121-.63-.113-.113-.284-.138-.56-.138h-.826v1.176h-.77V7.611h1.77c.393 0 .682.01.93.155.244.144.39.355.39.716zm1.23 2.363h-.784V7.611h.785v3.234zm9.105 0h-1.09l-1.458-2.427v2.427h-1.566l-.3-.721h-1.597l-.29.721h-.9c-.374 0-.847-.083-1.115-.357-.27-.275-.411-.647-.411-1.235 0-.48.084-.918.414-1.265.249-.258.638-.377 1.168-.377h.745v.693h-.73c-.28 0-.438.042-.59.192-.132.136-.222.393-.222.732 0 .347.068.597.211.76.119.128.334.167.536.167h.346l1.084-2.544h1.152l1.302 3.06V7.61h1.171l1.352 2.253V7.61h.788v3.234zm-25.404.636h1.314l.296-.719H9.2l.295.719h2.586v-.55l.23.552h1.343l.23-.56v.558h6.426l-.003-1.18h.125c.087.003.112.011.112.156v1.024h3.323v-.275c.269.144.685.275 1.234.275h1.398l.3-.719h.663l.292.719h2.695v-.683l.408.683h2.159V6.97h-2.137v.532l-.3-.532h-2.192v.532l-.274-.532H25.15c-.496 0-.932.07-1.284.263V6.97h-2.043v.263c-.224-.2-.53-.263-.869-.263h-7.466l-.501 1.165-.515-1.165H10.12v.532l-.258-.532H7.856l-.931 2.144v2.367z"/>
    </g>
</svg>
