<svg xmlns="http://www.w3.org/2000/svg" xmlns:xlink="http://www.w3.org/1999/xlink" width="41" height="24" viewBox="0 0 41 24">
    <defs>
        <rect id="a" width="39.675" height="24" x=".375" rx="1.8"/>
        <path id="b" d="M9.943 24H38.25a1.8 1.8 0 0 0 1.8-1.8v-8.72S29.417 20.746 9.943 24z"/>
    </defs>
    <g fill="none" fill-rule="evenodd">
        <g>
            <rect width="38.875" height="23.2" x=".775" y=".4" stroke="#E7E7E7" stroke-width=".8" rx="1.8"/>
            <use fill="#E6772F" xlink:href="#b"/>
        </g>
        <path fill="#1A1919" d="M7.631 11.929c-.298.257-.677.369-1.283.369h-.252V9.234h.252c.606 0 .97.105 1.283.374.322.279.516.708.516 1.153 0 .446-.194.891-.516 1.168zm-1.095-3.48H5.159v4.634h1.368c.728 0 1.254-.167 1.714-.536a2.295 2.295 0 0 0 .872-1.78c0-1.368-1.059-2.318-2.577-2.318zM9.545 8.449h.934v4.634h-.934zM12.771 10.225c-.563-.2-.728-.332-.728-.583 0-.29.294-.511.7-.511.28 0 .51.108.757.373l.487-.617a2.136 2.136 0 0 0-1.41-.515c-.85 0-1.498.57-1.498 1.325 0 .64.301.965 1.18 1.274.368.123.555.207.65.264.186.117.28.284.28.478 0 .377-.31.654-.728.654-.446 0-.807-.215-1.022-.62l-.604.565c.432.61.95.883 1.662.883.972 0 1.658-.628 1.658-1.523 0-.737-.318-1.071-1.384-1.447M14.449 10.767c0 1.363 1.109 2.419 2.536 2.419.403 0 .748-.077 1.172-.27V11.85c-.375.364-.705.507-1.13.507-.944 0-1.612-.658-1.612-1.597 0-.888.69-1.591 1.57-1.591.444 0 .784.152 1.172.521V8.627c-.41-.2-.747-.283-1.153-.283-1.419 0-2.555 1.077-2.555 2.423M25.747 11.56L24.466 8.45h-1.022l2.037 4.751h.502l2.076-4.751h-1.014l-1.298 3.111M28.484 13.083h2.656v-.785h-1.72v-1.251h1.655v-.785H29.42V9.234h1.719v-.785h-2.656v4.634M32.97 10.58h-.272V9.178h.287c.585 0 .899.237.899.689 0 .464-.314.713-.914.713zm1.878-.764c0-.868-.617-1.367-1.698-1.367h-1.392v4.634h.94V11.22h.121l1.295 1.863h1.152l-1.511-1.953c.706-.14 1.093-.605 1.093-1.314z"/>
        <path fill="#E6772F" d="M23.576 10.778c0 1.334-1.12 2.416-2.504 2.416-1.383 0-2.503-1.082-2.503-2.416 0-1.334 1.12-2.416 2.503-2.416 1.384 0 2.504 1.082 2.504 2.416"/>
    </g>
</svg>
