<svg xmlns="http://www.w3.org/2000/svg" width="40" height="24" viewBox="0 0 40 24">
    <g fill="none" fill-rule="evenodd">
        <rect width="38.875" height="23.2" x=".4" y=".4" fill="#FFF" stroke="#E7E7E7" stroke-width=".8" rx="1.8"/>
        <path fill="#26337A" d="M15.661 15.819l1.22-7.63h1.95l-1.22 7.63h-1.95M24.684 8.376a4.786 4.786 0 0 0-1.747-.32c-1.928 0-3.285 1.036-3.296 2.518-.013 1.097.968 1.708 1.707 2.073.76.374 1.016.613 1.013.947-.006.51-.607.745-1.168.745-.78 0-1.195-.115-1.836-.4l-.251-.122-.273 1.708c.455.213 1.298.397 2.173.407 2.048 0 3.38-1.023 3.395-2.606.007-.87-.512-1.529-1.637-2.073-.682-.354-1.1-.588-1.095-.947 0-.317.353-.656 1.117-.656.638-.01 1.1.138 1.46.293l.174.087.264-1.654M27.28 13.114c.162-.439.778-2.133.778-2.133-.012.02.16-.442.259-.728l.131.658s.375 1.821.452 2.203h-1.62zm2.406-4.917H28.18c-.467 0-.817.135-1.022.632l-2.895 6.992h2.048s.334-.94.41-1.147l2.497.004c.059.267.238 1.143.238 1.143h1.81l-1.579-7.624zM14.025 8.195l-1.908 5.202-.205-1.057c-.356-1.219-1.463-2.539-2.701-3.2l1.746 6.672 2.064-.001 3.07-7.616h-2.066"/>
        <path fill="#EC982D" d="M10.345 8.19H7.2l-.026.158c2.447.632 4.066 2.158 4.738 3.992l-.683-3.506c-.118-.483-.46-.627-.884-.644"/>
    </g>
</svg>
